<svg width="1200" height="1600" viewBox="0 0 1200 1600" xmlns="http://www.w3.org/2000/svg">
  <defs>
    <linearGradient id="folderGrad" x1="0%" y1="0%" x2="100%" y2="100%">
      <stop offset="0%" stop-color="#20DDCC"/>
      <stop offset="100%" stop-color="#6244EE"/>
    </linearGradient>
    <linearGradient id="botBodyGrad" x1="0%" y1="0%" x2="100%" y2="100%">
      <stop offset="0%" stop-color="#ffffff"/>
      <stop offset="100%" stop-color="#E8E6FC"/>
    </linearGradient>
    <linearGradient id="accGrad" x1="0%" y1="0%" x2="100%" y2="100%">
      <stop offset="0%" stop-color="#20C8DD"/>
      <stop offset="100%" stop-color="#36E0E9"/>
    </linearGradient>
  </defs>
  <path d="M200,320 L780,320 Q820,320 820,360 L820,1080 Q820,1120 780,1120 L200,1120 Q160,1120 160,1080 L160,360 Q160,320 200,320" fill="url(#folderGrad)" rx="28"/>
  <circle cx="260" cy="380" r="32" fill="#fff"/>
  <circle cx="320" cy="380" r="32" fill="#fff"/>
  <rect x="280" y="420" width="640" height="620" rx="22" fill="#F5F7FA"/>
  <rect x="280" y="420" width="640" height="80" rx="22" fill="#ffffff"/>
  <circle cx="340" cy="460" r="16" fill="#20DDCC"/>
  <circle cx="380" cy="460" r="16" fill="#20DDCC"/>
  <circle cx="420" cy="460" r="16" fill="#20DDCC"/>
  <g transform="translate(600,730) scale(0.82)">
    <rect x="-110" y="-90" width="220" height="180" rx="36" fill="url(#botBodyGrad)"/>
    <rect x="-75" y="-55" width="150" height="95" rx="16" fill="#1A2436"/>
    <circle cx="-35" cy="-20" r="18" fill="#36E0E9"/>
    <circle cx="35" cy="-20" r="18" fill="#36E0E9"/>
    <rect x="-25" cy="25" width="50" height="8" rx="4" fill="#36E0E9"/>
    <circle cx="0" cy="-115" r="16" fill="url(#accGrad)"/>
    <rect x="-130" y="-30" width="22" height="60" rx="8" fill="url(#accGrad)"/>
    <rect x="108" y="-30" width="22" height="60" rx="8" fill="url(#accGrad)"/>
    <polygon points="130,-20 200,10 130,40" fill="rgba(54,224,233,0.35)"/>
  </g>
</svg>
